{"asset":{"generator":"Khronos glTF Spline I/O v0.0.1","version":"2.0"},"scenes":[{"nodes":[0]}],"nodes":[{"name":"Bot","children":[1,2,3,4,5,6,7]},{"name":"Torus Knot","matrix":[1.1564792074054273,-0.009934106010958565,0.08023553689513915,0,0.00007836391368818643,1.125736735119141,0.1443436334402962,0,-0.08088878053883189,-0.14102452756931308,1.1479826216364972,0,-366.58428896392473,189.51491543443166,-1496.8113561284213,1],"mesh":0},{"name":"Icosahedron","matrix":[-0.7862803849647612,0.1508678306164703,-0.8388482653091621,0,-0.41404448236558566,-1.04452548810978,0.19212875158890777,0,-0.7445092818130964,0.41973609320964483,0.7768305196503635,0,518.8726072334031,293.8834276163884,-386.6787312216916,1],"mesh":1},{"name":"buddy","matrix":[1.1593011305241516,0,0,0,0,1.130132304045664,0.10413245687355575,0,0,-0.10196324126905809,1.1549724998096897,0,93.16698731546,293.8834276163883,272.1011291875603,1],"children":[8,9,10,11,12,13,14,15]},{"name":"Rectangle","matrix":[1.1593011305241516,0,0,0,0,0.1019670566021694,-1.1549703715166222,0,0,1.1301302215261688,0.10413635337592009,0,13.12351000024092,1.5733628108150626,245.7432067670864,1],"mesh":2},{"name":"Directional Light 2","translation":[-468.14586388865536,519.0905734121242,370.1240653345692],"rotation":[-0.481445796701499,-0.18503133880978634,0.3073426718372419,0.7996960863757321],"extensions":{"KHR_lights_punctual":{"light":0}}},{"name":"Directional Light","translation":[-415.2744226390399,219.43099079317713,926.635915995119],"rotation":[-0.19906724925718464,-0.11996193748201768,0.5020106771091744,0.8330466036766051],"extensions":{"KHR_lights_punctual":{"light":1}}},{"name":"Default Camera","camera":0,"translation":[67.1752354362777,193.21319631385714,1670.182570115093],"rotation":[-3.403425462456533e-17,0,0,1],"children":[16]},{"name":"Empty Object","matrix":[1,0,0,0,0,1,0,0,0,0,1,0,64.2937540324088,-99.40289631608373,-25.93449149316976,1],"children":[17]},{"name":"Torus copy","matrix":[0.13214713295164118,-0.0707164656110915,0.006026337539215664,0,0.01354144859921106,0.01261972041050802,-0.1488535247368887,0,0.19507309674163173,0.36870720812342356,0.049004914095021126,0,59.539404421992515,83.36097969233305,-6.051241690047817,1],"mesh":3},{"name":"Cylinder copy 2","matrix":[0.07870217684389524,-0.04365738608794899,0,0,0.2619443165276939,0.47221306106337135,0,0,0,0,0.07,0,44.39447186707022,57.03970706336719,-6.116081601376862,1],"mesh":4},{"name":"Empty Object 2","matrix":[1,0,0,0,0,1,0,0,0,0,1,0,-66.39407850155337,-92.66939037809524,-27.37237479480084,1],"children":[18]},{"name":"Torus","matrix":[0.1418277863398975,0.048461967333031555,0.006026337539215612,0,-8.326672684688672e-18,0.01851021808095382,-0.14885352473688862,0,-0.13673862487200575,0.39408256351004967,0.04900491409502131,0,-53.45436384873862,88.93363375224111,-3.8850000000000087,1],"mesh":5},{"name":"Cylinder","matrix":[0.08559508646656382,0.02781152949374527,0,0,-0.16686917696247164,0.513570518799383,0,0,0,0,0.07,0,-42.997995295230965,60.43046995887531,-3.885000000000005,1],"mesh":6},{"name":"Lathe 2","matrix":[1.6502996762297193,0,0,0,0,1.89,0,0,0,0,1.26,0,2.842170943040401e-14,-126.1078849607614,4.27000000000001,1],"mesh":7},{"name":"Lathe","matrix":[2.036950072598194,0,0,0,0,3.5744830689353146,0,0,0,0,1.34,0,2.842170943040401e-14,-105.93788668355901,0,1],"mesh":8},{"name":"Default Directional Light","translation":[850000,1300000,1000000],"rotation":[-0.45895513091666534,0.1367267597249462,-0.25064115022945466,0.8413352451859125],"extensions":{"KHR_lights_punctual":{"light":2}}},{"name":"Sphere","matrix":[0.219162833580184,0.019174263404484804,0,0,-0.05926590506840758,0.677412394702387,0,0,0,0,0.46,0,11.855113493927632,-34.51286745427011,25.93449149316976,1],"mesh":9},{"name":"Sphere copy","matrix":[0.219162833580184,-0.019174263404484804,0,0,0.05926590506840758,0.677412394702387,0,0,0,0,0.46,0,-10.429151829390193,-40.53460223794107,27.37237479480084,1],"mesh":10}],"cameras":[{"type":"perspective","perspective":{"aspectRatio":1.824228028503563,"yfov":0.7853981633974483,"znear":50,"zfar":50000}}],"meshes":[{"primitives":[{"attributes":{"POSITION":1,"NORMAL":2,"TEXCOORD_0":3},"indices":0}]},{"primitives":[{"attributes":{"POSITION":4,"NORMAL":5,"TEXCOORD_0":6}}]},{"primitives":[{"attributes":{"POSITION":8,"NORMAL":9,"TEXCOORD_0":10},"indices":7}]},{"primitives":[{"attributes":{"POSITION":12,"NORMAL":13,"TEXCOORD_0":14},"indices":11}]},{"primitives":[{"attributes":{"POSITION":16,"NORMAL":17,"TEXCOORD_0":18},"indices":15}]},{"primitives":[{"attributes":{"POSITION":20,"NORMAL":21,"TEXCOORD_0":22},"indices":19}]},{"primitives":[{"attributes":{"POSITION":24,"NORMAL":25,"TEXCOORD_0":26},"indices":23}]},{"primitives":[{"attributes":{"POSITION":28,"TEXCOORD_0":29,"NORMAL":30},"indices":27}]},{"primitives":[{"attributes":{"POSITION":32,"TEXCOORD_0":33,"NORMAL":34},"indices":31}]},{"primitives":[{"attributes":{"POSITION":36,"NORMAL":37,"TEXCOORD_0":38},"indices":35}]},{"primitives":[{"attributes":{"POSITION":40,"NORMAL":41,"TEXCOORD_0":42},"indices":39}]}],"buffers":[{"uri":"data:application/octet-stream;base64,","byteLength":69712},{"uri":"data:application/octet-stream;base64,","byteLength":1920},{"uri":"data:application/octet-stream;base64,","byteLength":44000},{"uri":"data:application/octet-stream;base64,","byteLength":95328},{"uri":"data:application/octet-stream;base64,","byteLength":13952},{"uri":"data:application/octet-stream;base64,","byteLength":95328},{"uri":"data:application/octet-stream;base64,","byteLength":13952},{"uri":"data:application/octet-stream;base64,","byteLength":184352},{"uri":"data:application/octet-stream;base64,","byteLength":184352},{"uri":"data:application/octet-stream;base64,","byteLength":183584},{"uri":"data:application/octet-stream;base64,","byteLength":183584}],"bufferViews":[{"buffer":0,"byteOffset":0,"byteLength":18000,"target":34963},{"buffer":0,"byteOffset":18000,"byteLength":19392,"target":34962},{"buffer":0,"byteOffset":37392,"byteLength":19392,"target":34962},{"buffer":0,"byteOffset":56784,"byteLength":12928,"target":34962},{"buffer":1,"byteOffset":0,"byteLength":720,"target":34962},{"buffer":1,"byteOffset":720,"byteLength":720,"target":34962},{"buffer":1,"byteOffset":1440,"byteLength":480,"target":34962},{"buffer":2,"byteOffset":0,"byteLength":12000,"target":34963},{"buffer":2,"byteOffset":12000,"byteLength":12000,"target":34962},{"buffer":2,"byteOffset":24000,"byteLength":12000,"target":34962},{"buffer":2,"byteOffset":36000,"byteLength":8000,"target":34962},{"buffer":3,"byteOffset":0,"byteLength":24576,"target":34963},{"buffer":3,"byteOffset":24576,"byteLength":26532,"target":34962},{"buffer":3,"byteOffset":51108,"byteLength":26532,"target":34962},{"buffer":3,"byteOffset":77640,"byteLength":17688,"target":34962},{"buffer":4,"byteOffset":0,"byteLength":1536,"target":34963},{"buffer":4,"byteOffset":1536,"byteLength":4656,"target":34962},{"buffer":4,"byteOffset":6192,"byteLength":4656,"target":34962},{"buffer":4,"byteOffset":10848,"byteLength":3104,"target":34962},{"buffer":5,"byteOffset":0,"byteLength":24576,"target":34963},{"buffer":5,"byteOffset":24576,"byteLength":26532,"target":34962},{"buffer":5,"byteOffset":51108,"byteLength":26532,"target":34962},{"buffer":5,"byteOffset":77640,"byteLength":17688,"target":34962},{"buffer":6,"byteOffset":0,"byteLength":1536,"target":34963},{"buffer":6,"byteOffset":1536,"byteLength":4656,"target":34962},{"buffer":6,"byteOffset":6192,"byteLength":4656,"target":34962},{"buffer":6,"byteOffset":10848,"byteLength":3104,"target":34962},{"buffer":7,"byteOffset":0,"byteLength":49152,"target":34963},{"buffer":7,"byteOffset":49152,"byteLength":50700,"target":34962},{"buffer":7,"byteOffset":99852,"byteLength":33800,"target":34962},{"buffer":7,"byteOffset":133652,"byteLength":50700,"target":34962},{"buffer":8,"byteOffset":0,"byteLength":49152,"target":34963},{"buffer":8,"byteOffset":49152,"byteLength":50700,"target":34962},{"buffer":8,"byteOffset":99852,"byteLength":33800,"target":34962},{"buffer":8,"byteOffset":133652,"byteLength":50700,"target":34962},{"buffer":9,"byteOffset":0,"byteLength":48384,"target":34963},{"buffer":9,"byteOffset":48384,"byteLength":50700,"target":34962},{"buffer":9,"byteOffset":99084,"byteLength":50700,"target":34962},{"buffer":9,"byteOffset":149784,"byteLength":33800,"target":34962},{"buffer":10,"byteOffset":0,"byteLength":48384,"target":34963},{"buffer":10,"byteOffset":48384,"byteLength":50700,"target":34962},{"buffer":10,"byteOffset":99084,"byteLength":50700,"target":34962},{"buffer":10,"byteOffset":149784,"byteLength":33800,"target":34962}],"accessors":[{"bufferView":0,"byteOffset":0,"componentType":5123,"count":9000,"type":"SCALAR","min":[0],"max":[1615]},{"bufferView":1,"byteOffset":0,"componentType":5126,"count":1616,"type":"VEC3","min":[-165.26087951660156,-189.99859619140625,-96.97119140625],"max":[197.993408203125,190.0367889404297,96.97161865234375]},{"bufferView":2,"byteOffset":0,"componentType":5126,"count":1616,"type":"VEC3","min":[-0.9999939799308777,-0.9979404807090759,-0.999373733997345],"max":[0.9970393180847168,0.9987708330154419,0.9993830919265747]},{"bufferView":3,"byteOffset":0,"componentType":5126,"count":1616,"type":"VEC2","min":[0,0],"max":[1,1]},{"bufferView":4,"byteOffset":0,"componentType":5126,"count":60,"type":"VEC3","min":[-53.16567611694336,-48.061771392822266,-53.16567611694336],"max":[53.16567611694336,48.061771392822266,53.16567611694336]},{"bufferView":5,"byteOffset":0,"componentType":5126,"count":60,"type":"VEC3","min":[-0.9211483597755432,-0.945236086845398,-0.9341723918914795],"max":[0.9211483597755432,0.945236086845398,0.9341723918914795]},{"bufferView":6,"byteOffset":0,"componentType":5126,"count":60,"type":"VEC2","min":[0,0.17620819807052612],"max":[1.0881041288375854,0.8237918019294739]},{"bufferView":7,"byteOffset":0,"componentType":5125,"count":3000,"type":"SCALAR","min":[0],"max":[3]},{"bufferView":8,"byteOffset":0,"componentType":5126,"count":1000,"type":"VEC3","min":[-331.5,-316.5,0],"max":[331.5,316.5,0]},{"bufferView":9,"byteOffset":0,"componentType":5126,"count":1000,"type":"VEC3","min":[0,0,0],"max":[0,0,1]},{"bufferView":10,"byteOffset":0,"componentType":5126,"count":1000,"type":"VEC2","min":[0,0],"max":[1,1]},{"bufferView":11,"byteOffset":0,"componentType":5123,"count":12288,"type":"SCALAR","min":[33],"max":[2144]},{"bufferView":12,"byteOffset":0,"componentType":5126,"count":2211,"type":"VEC3","min":[-50,-50,-12.500499725341797],"max":[50,50,12.500499725341797]},{"bufferView":13,"byteOffset":0,"componentType":5126,"count":2211,"type":"VEC3","min":[-1,-1,-1],"max":[1,1,1]},{"bufferView":14,"byteOffset":0,"componentType":5126,"count":2211,"type":"VEC2","min":[0,0],"max":[0.9520199298858643,1]},{"bufferView":15,"byteOffset":0,"componentType":5123,"count":768,"type":"SCALAR","min":[0],"max":[387]},{"bufferView":16,"byteOffset":0,"componentType":5126,"count":388,"type":"VEC3","min":[-55.5,-55.5,-55.5],"max":[55.5,55.5,55.5]},{"bufferView":17,"byteOffset":0,"componentType":5126,"count":388,"type":"VEC3","min":[-1,-1,-1],"max":[1,1,1]},{"bufferView":18,"byteOffset":0,"componentType":5126,"count":388,"type":"VEC2","min":[0,0],"max":[1,1]},{"bufferView":19,"byteOffset":0,"componentType":5123,"count":12288,"type":"SCALAR","min":[33],"max":[2144]},{"bufferView":20,"byteOffset":0,"componentType":5126,"count":2211,"type":"VEC3","min":[-50,-50,-12.500499725341797],"max":[50,50,12.500499725341797]},{"bufferView":21,"byteOffset":0,"componentType":5126,"count":2211,"type":"VEC3","min":[-1,-1,-1],"max":[1,1,1]},{"bufferView":22,"byteOffset":0,"componentType":5126,"count":2211,"type":"VEC2","min":[0,0],"max":[0.9520199298858643,1]},{"bufferView":23,"byteOffset":0,"componentType":5123,"count":768,"type":"SCALAR","min":[0],"max":[387]},{"bufferView":24,"byteOffset":0,"componentType":5126,"count":388,"type":"VEC3","min":[-55.5,-55.5,-55.5],"max":[55.5,55.5,55.5]},{"bufferView":25,"byteOffset":0,"componentType":5126,"count":388,"type":"VEC3","min":[-1,-1,-1],"max":[1,1,1]},{"bufferView":26,"byteOffset":0,"componentType":5126,"count":388,"type":"VEC2","min":[0,0],"max":[1,1]},{"bufferView":27,"byteOffset":0,"componentType":5123,"count":24576,"type":"SCALAR","min":[0],"max":[4224]},{"bufferView":28,"byteOffset":0,"componentType":5126,"count":4225,"type":"VEC3","min":[-37.0906867980957,-58,-37.0906867980957],"max":[37.0906867980957,38.269039154052734,37.0906867980957]},{"bufferView":29,"byteOffset":0,"componentType":5126,"count":4225,"type":"VEC2","min":[0,0],"max":[1,1]},{"bufferView":30,"byteOffset":0,"componentType":5126,"count":4225,"type":"VEC3","min":[-0.9999902844429016,-0.9994573593139648,-0.9999902844429016],"max":[0.9999902844429016,0.9996575713157654,0.9999901652336121]},{"bufferView":31,"byteOffset":0,"componentType":5123,"count":24576,"type":"SCALAR","min":[0],"max":[4224]},{"bufferView":32,"byteOffset":0,"componentType":5126,"count":4225,"type":"VEC3","min":[-34.84846878051758,15.671875,-34.84846878051758],"max":[34.84846878051758,49,34.84846878051758]},{"bufferView":33,"byteOffset":0,"componentType":5126,"count":4225,"type":"VEC2","min":[0,0],"max":[1,1]},{"bufferView":34,"byteOffset":0,"componentType":5126,"count":4225,"type":"VEC3","min":[-0.9999334812164307,-0.9998295903205872,-0.9999334812164307],"max":[0.9999334812164307,0.9998422861099243,0.9999330043792725]},{"bufferView":35,"byteOffset":0,"componentType":5123,"count":24192,"type":"SCALAR","min":[0],"max":[4224]},{"bufferView":36,"byteOffset":0,"componentType":5126,"count":4225,"type":"VEC3","min":[-45.5,-99.5,-45.5],"max":[45.5,99.5,45.5]},{"bufferView":37,"byteOffset":0,"componentType":5126,"count":4225,"type":"VEC3","min":[-1,-1,-1],"max":[1,1,1]},{"bufferView":38,"byteOffset":0,"componentType":5126,"count":4225,"type":"VEC2","min":[-0.0078125,0],"max":[1.0078125,1]},{"bufferView":39,"byteOffset":0,"componentType":5123,"count":24192,"type":"SCALAR","min":[0],"max":[4224]},{"bufferView":40,"byteOffset":0,"componentType":5126,"count":4225,"type":"VEC3","min":[-45.5,-99.5,-45.5],"max":[45.5,99.5,45.5]},{"bufferView":41,"byteOffset":0,"componentType":5126,"count":4225,"type":"VEC3","min":[-1,-1,-1],"max":[1,1,1]},{"bufferView":42,"byteOffset":0,"componentType":5126,"count":4225,"type":"VEC2","min":[-0.0078125,0],"max":[1.0078125,1]}],"extensions":{"KHR_lights_punctual":{"lights":[{"type":"directional","name":"Directional Light 2","color":[1,1,1],"intensity":0.5},{"type":"directional","name":"Directional Light","color":[0.25882352941176473,0.18823529411764706,0.8784313725490196],"intensity":0.5},{"type":"directional","name":"Default Directional Light","color":[1,1,1],"intensity":0.75}]}},"extensionsUsed":["KHR_lights_punctual"]}